<?xml version="1.0" standalone="no"?>
<!DOCTYPE svg PUBLIC "-//W3C//DTD SVG 20010904//EN"
 "http://www.w3.org/TR/2001/REC-SVG-20010904/DTD/svg10.dtd">
<svg version="1.0" xmlns="http://www.w3.org/2000/svg"
 width="96.000000pt" height="96.000000pt" viewBox="0 0 96.000000 96.000000"
 preserveAspectRatio="xMidYMid meet">

<g transform="translate(0.000000,96.000000) scale(0.100000,-0.100000)"
fill="#000000" stroke="none">
<path d="M60 446 c0 -218 2 -257 16 -270 13 -14 64 -16 404 -16 340 0 391 2
404 16 14 13 16 52 16 270 l0 254 -420 0 -420 0 0 -254z m556 -1 c47 -116 51
-135 32 -135 -11 0 -108 219 -108 243 0 5 7 7 16 5 10 -2 33 -45 60 -113z
m-156 75 c0 -17 -5 -19 -25 -14 -43 11 -75 -4 -91 -41 -26 -63 10 -111 76
-102 31 4 40 2 40 -9 0 -20 -46 -36 -85 -28 -68 12 -103 89 -71 156 21 43 46
56 109 57 41 1 47 -2 47 -19z m68 -57 c5 -17 -26 -29 -40 -15 -6 6 -7 15 -3
22 9 14 37 9 43 -7z m-2 -132 c-9 -14 -33 -14 -41 -1 -4 6 -1 18 6 26 11 13
14 13 27 0 8 -8 11 -19 8 -25z"/>
</g>
</svg>
