<?xml version="1.0" standalone="no"?>
<!DOCTYPE svg PUBLIC "-//W3C//DTD SVG 20010904//EN"
 "http://www.w3.org/TR/2001/REC-SVG-20010904/DTD/svg10.dtd">
<svg version="1.0" xmlns="http://www.w3.org/2000/svg"
 width="96.000000pt" height="96.000000pt" viewBox="0 0 96.000000 96.000000"
 preserveAspectRatio="xMidYMid meet">

<g transform="translate(0.000000,96.000000) scale(0.100000,-0.100000)"
fill="#000000" stroke="none">
<path d="M361 944 c-253 -68 -410 -331 -346 -579 67 -256 329 -415 580 -350
256 67 415 329 350 578 -67 259 -333 419 -584 351z m-111 -374 c0 -46 -2 -50
-24 -50 -20 0 -25 6 -28 32 -2 17 -9 33 -15 36 -10 3 -13 -23 -13 -107 0 -67
4 -111 10 -111 6 0 10 18 10 40 0 38 2 40 30 40 29 0 30 -2 30 -43 0 -55 -13
-67 -72 -67 -37 0 -50 4 -58 19 -11 21 -14 219 -4 245 5 12 21 16 70 16 l64 0
0 -50z m154 34 c12 -30 7 -239 -6 -252 -16 -16 -100 -16 -116 0 -13 13 -18
222 -6 252 9 23 119 23 128 0z m154 4 c15 -15 16 -94 2 -103 -7 -4 -7 -12 0
-25 14 -26 13 -113 -2 -128 -7 -7 -38 -12 -70 -12 l-58 0 0 140 0 140 58 0
c32 0 63 -5 70 -12z m158 0 c5 -7 7 -69 4 -138 l-5 -125 -60 0 -60 0 -3 124
c-1 69 0 131 2 138 7 17 110 18 122 1z m96 -110 c3 -111 5 -123 21 -120 11 2
17 -4 17 -18 0 -17 -6 -20 -49 -20 l-50 0 -3 140 -3 140 32 0 32 0 3 -122z"/>
<path d="M330 480 c0 -67 4 -110 10 -110 6 0 10 43 10 110 0 67 -4 110 -10
110 -6 0 -10 -43 -10 -110z"/>
<path d="M490 545 c0 -28 4 -44 10 -40 6 3 10 21 10 40 0 19 -4 37 -10 40 -6
4 -10 -12 -10 -40z"/>
<path d="M490 419 c0 -31 4 -48 10 -44 6 3 10 26 10 51 0 24 -4 44 -10 44 -5
0 -10 -23 -10 -51z"/>
<path d="M650 480 c0 -67 4 -110 10 -110 6 0 10 43 10 110 0 67 -4 110 -10
110 -6 0 -10 -43 -10 -110z"/>
</g>
</svg>
